<svg width="23" height="32" viewBox="0 0 23 32" fill="none" xmlns="http://www.w3.org/2000/svg">
<path d="M0 6C0 2.6875 2.625 0 5.9375 0H16.25C19.5625 0 22.1875 2.6875 22.1875 6C22.1875 8.125 21.125 9.9375 19.5 11C21.125 12.125 22.1875 13.9375 22.1875 16.0625C22.1875 19.3125 19.5625 22 16.25 22H16.125C14.5625 22 13.125 21.4375 12.0625 20.4375V26C12.0625 29.3125 9.3125 32 6 32C2.6875 32 0 29.375 0 26.0625C0 23.9375 1.0625 22.125 2.6875 21.0625C1.0625 19.9375 0 18.125 0 16.0625C0 13.9375 1.0625 12.125 2.6875 11C1.0625 9.9375 0 8.125 0 6ZM10.125 12H5.9375C3.75 12 1.9375 13.8125 1.9375 16.0625C1.9375 18.25 3.6875 20.0625 5.9375 20.0625H10.125V12ZM12.0625 16.0625C12.0625 18.25 13.875 20.0625 16.125 20.0625H16.25C18.4375 20.0625 20.25 18.25 20.25 16.0625C20.25 13.8125 18.4375 12 16.25 12H16.125C13.875 12 12.0625 13.8125 12.0625 16.0625ZM5.9375 22C3.6875 22.0625 1.9375 23.8125 1.9375 26.0625C1.9375 28.25 3.75 30.0625 6 30.0625C8.25 30.0625 10.125 28.25 10.125 26V22H5.9375ZM5.9375 2C3.75 2 1.9375 3.8125 1.9375 6C1.9375 8.25 3.75 10.0625 5.9375 10.0625H10.125V2H5.9375ZM12.0625 10.0625H16.25C18.4375 10.0625 20.25 8.25 20.25 6C20.25 3.8125 18.4375 2 16.25 2H12.0625V10.0625Z" fill="white"/>
</svg>
