<svg width="41" height="16" viewBox="0 0 41 16" fill="none" xmlns="http://www.w3.org/2000/svg">
<path d="M25.0625 4.375C24.375 4.5625 23.8125 4.6875 23.25 4.875C22.75 5 22.3125 5.125 21.75 5.25C21.5 5.3125 21.4375 5.3125 21.1875 5.0625C20.9375 4.75 20.6875 4.5 20.3125 4.3125C19.0625 3.6875 17.875 3.875 16.75 4.625C15.4375 5.4375 14.75 6.75 14.75 8.3125C14.8125 9.875 15.875 11.125 17.375 11.375C18.75 11.5625 19.8125 11.0625 20.6875 10.0625C20.875 9.9375 20.9375 9.75 21.125 9.5625C21.125 9.5 21.1875 9.4375 21.25 9.375H17.5C17.0625 9.375 17 9.125 17.125 8.75C17.375 8.1875 17.8125 7.125 18.125 6.625C18.1875 6.5625 18.3125 6.3125 18.5625 6.3125H24.875C25.125 5.4375 25.625 4.625 26.1875 3.8125C27.625 1.9375 29.3125 0.9375 31.6875 0.5625C33.625 0.1875 35.5 0.375 37.1875 1.5625C38.75 2.625 39.6875 4 39.9375 5.875C40.3125 8.5 39.5 10.6875 37.6875 12.5C36.4375 13.8125 34.875 14.625 33.0625 15C32.6875 15.0625 32.375 15.0625 32 15.125C31.8125 15.125 31.6875 15.125 31.5 15.1875C29.6875 15.125 28.125 14.625 26.75 13.4375C25.75 12.625 25.125 11.625 24.8125 10.4375C24.5625 10.875 24.3125 11.3125 23.9375 11.75C22.5625 13.5625 20.75 14.75 18.4375 15.0625C16.5 15.3125 14.75 14.9375 13.1875 13.75C11.75 12.6875 10.9375 11.25 10.6875 9.4375C10.4375 7.3125 11.0625 5.375 12.375 3.75C13.75 1.9375 15.5625 0.75 17.8125 0.375C19.625 0 21.375 0.25 23 1.3125C24 2 24.75 2.9375 25.25 4.0625C25.375 4.25 25.25 4.3125 25.0625 4.375ZM3.0625 4.75C3 4.75 2.9375 4.6875 3 4.625L3.375 4.125C3.4375 4.0625 3.5625 4 3.625 4H10.5625C10.625 4 10.6875 4.0625 10.625 4.125L10.3125 4.625C10.25 4.6875 10.1875 4.75 10.125 4.75H3.0625ZM0.125 6.5625C0.0625 6.5625 0 6.5 0.0625 6.4375L0.4375 5.9375C0.5 5.875 0.625 5.8125 0.6875 5.8125H9.5625C9.625 5.8125 9.6875 5.875 9.625 5.9375L9.5 6.375C9.5 6.5 9.375 6.5 9.3125 6.5L0.125 6.5625ZM4.75 8.1875C4.75 8.25 4.75 8.3125 4.8125 8.3125H9.0625C9.125 8.3125 9.1875 8.3125 9.1875 8.1875L9.25 7.75C9.25 7.6875 9.1875 7.625 9.125 7.625H5.25C5.125 7.625 5.0625 7.6875 5.0625 7.75L4.75 8.1875ZM36.125 7.0625C36.125 6.9375 36.0625 6.8125 36.0625 6.625C35.6875 4.75 33.9375 3.625 32.0625 4.0625C30.25 4.4375 29.125 5.625 28.6875 7.4375C28.3125 8.9375 29.0625 10.5 30.5 11.125C31.5625 11.625 32.625 11.5625 33.625 11C35.1875 10.1875 36 8.9375 36.125 7.3125C36.125 7.1875 36.125 7.125 36.125 7.0625Z" fill="#F9F6EE"/>
</svg>
