<svg width="32" height="32" viewBox="0 0 32 32" fill="none" xmlns="http://www.w3.org/2000/svg">
<path d="M16 10.6665C22.6274 10.6665 28 8.87564 28 6.6665C28 4.45736 22.6274 2.6665 16 2.6665C9.37258 2.6665 4 4.45736 4 6.6665C4 8.87564 9.37258 10.6665 16 10.6665Z" stroke="#05DF72" stroke-width="2.66667" stroke-linecap="round" stroke-linejoin="round"/>
<path d="M4 6.6665V25.3332C4 26.394 5.26428 27.4115 7.51472 28.1616C9.76516 28.9117 12.8174 29.3332 16 29.3332C19.1826 29.3332 22.2348 28.9117 24.4853 28.1616C26.7357 27.4115 28 26.394 28 25.3332V6.6665" stroke="#05DF72" stroke-width="2.66667" stroke-linecap="round" stroke-linejoin="round"/>
<path d="M4 16C4 17.0609 5.26428 18.0783 7.51472 18.8284C9.76516 19.5786 12.8174 20 16 20C19.1826 20 22.2348 19.5786 24.4853 18.8284C26.7357 18.0783 28 17.0609 28 16" stroke="#05DF72" stroke-width="2.66667" stroke-linecap="round" stroke-linejoin="round"/>
</svg>
