<svg width="32" height="32" viewBox="0 0 32 32" fill="none" xmlns="http://www.w3.org/2000/svg">
<path d="M6.6875 0C6.8125 0 6.9375 0.0625 7.0625 0.125L13 3.5625C13.125 3.625 13.25 3.75 13.3125 3.875C13.375 4.0625 13.375 4.1875 13.375 4.25V16.3125L17.6875 13.875V7.5625C17.6875 7.4375 17.75 7.25 17.8125 7.125C17.9375 7 18.0625 6.9375 18.1875 6.8125L24.0625 3.4375C24.1875 3.4375 24.3125 3.375 24.4375 3.375C24.5625 3.375 24.6875 3.4375 24.75 3.4375L30.75 6.9375C30.875 7 31 7.125 31.0625 7.25C31.125 7.375 31.125 7.5 31.125 7.625V14.3125C31.125 14.4375 31.125 14.5625 31 14.6875C30.9375 14.8125 30.8125 14.9375 30.6875 15L25.1875 18.1875V24.4375C25.1875 24.5625 25.1875 24.75 25.125 24.875C25 25 24.875 25.0625 24.75 25.1875L13 31.875C12.875 32 12.75 32 12.5625 32C12.4375 32 12.25 32 12.125 31.875L0.4375 25.125H0.375C0.3125 25.0625 0.25 25 0.125 24.9375C0 24.8125 0 24.6875 0 24.5V4.125C0 3.875 0.1875 3.625 0.3125 3.5625L6.25 0.125C6.375 0.0625 6.5 0 6.6875 0ZM2.375 4.25L6.6875 6.6875L11 4.25L6.6875 1.75L2.375 4.25ZM24.4375 10.0625L28.75 7.5625L24.4375 5.0625L20.125 7.5625L24.4375 10.0625ZM11.8125 5.5625L7.5 8.0625V19.75L11.8125 17.25V5.5625ZM5.875 8.0625L1.5625 5.625V24L11.8125 29.875V24.9375L6.3125 21.8125C6.25 21.75 6.125 21.6875 6.0625 21.5625C5.9375 21.4375 5.875 21.3125 5.875 21.125V8.0625ZM19.3125 13.875L23.625 16.3125V11.4375L19.3125 8.9375V13.875ZM25.1875 16.3125L29.5625 13.875V8.9375L25.1875 11.4375V16.3125ZM12.5625 23.5625L22.8125 17.6875L18.5 15.1875L8.3125 21.125L12.5625 23.5V23.5625ZM13.375 29.875L23.625 24V19.0625L13.375 24.9375V29.875Z" fill="#FF762C"/>
</svg>
