<svg width="102" height="29" viewBox="0 0 102 29" fill="none" xmlns="http://www.w3.org/2000/svg">
<path d="M2 0L15.75 18.375V0H18.25V22.8125H16.25L2.4375 4.5V22.8125H0V0H2ZM37 14.1875V14.6875H25.25C25.25 18.75 27.125 20.875 30.6875 20.875C32.5625 20.875 34.3125 20.25 35.875 19L36.75 20.875C35.3125 22.1875 32.9375 23.0625 30.6875 23.0625C25.625 23.0625 22.625 19.875 22.625 14.6875C22.625 9.75 25.75 6.3125 30.1875 6.3125C34.4375 6.3125 37 9.3125 37 14.1875ZM25.3125 13H34.6875C34.4375 9.9375 32.875 8.375 30.1875 8.375C27.5 8.375 25.8125 10.0625 25.3125 13ZM51.75 6.6875H54.9375L48.6875 14.5L55.3125 22.8125H52.1875L47.125 16.5L42.0625 22.8125H38.9375L45.625 14.5L39.3125 6.6875H42.4375L47.125 12.625L51.75 6.6875ZM66.25 6.6875V8.75H61.625V17.5625C61.625 19.9375 62.6875 20.8125 64.4375 20.8125C65.0625 20.8125 65.625 20.6875 66.1875 20.5V22.6875C65.5 22.9375 64.75 23.0625 63.9375 23.0625C60.875 23.0625 59.0625 21.25 59.0625 17.9375V8.75H55.9375V6.6875H59.0625V2.5625L61.625 1.6875V6.6875H66.25ZM71.875 22.8125H68.5625V19.5H71.875V22.8125ZM73.9375 0.3125H101.938V28.3125H73.9375V0.3125ZM89.125 22.1875V13.1875H86.5V22.125C86.5 23.4375 85.9375 23.8125 85.125 23.8125C84.1875 23.8125 83.8125 23.1875 83.4375 22.4375L81.25 23.75C81.875 25.0625 83.125 26.125 85.1875 26.125C87.5625 26.125 89.125 24.875 89.125 22.1875ZM95.375 26.125C97.875 26.125 99.75 24.875 99.75 22.5C99.75 20.3125 98.5 19.3125 96.25 18.375L95.5625 18.0625C94.4375 17.5625 93.9375 17.25 93.9375 16.4375C93.9375 15.8125 94.4375 15.3125 95.1875 15.3125C96 15.3125 96.4375 15.6875 96.9375 16.4375L98.9375 15.125C98.125 13.625 96.875 13.0625 95.25 13.0625C92.875 13.0625 91.375 14.5625 91.375 16.5C91.375 18.6875 92.625 19.6875 94.5 20.5L95.1875 20.75C96.375 21.3125 97.125 21.625 97.125 22.5C97.125 23.25 96.375 23.8125 95.3125 23.8125C94 23.8125 93.3125 23.125 92.75 22.25L90.5625 23.4375C91.375 25 92.9375 26.125 95.375 26.125Z" fill="#FFCA68"/>
</svg>
