<svg width="32" height="30" viewBox="0 0 32 30" fill="none" xmlns="http://www.w3.org/2000/svg">
<path d="M26.125 9.6875C29.5 10.8125 32 12.6875 32 14.5625C32 16.5625 29.375 18.5 25.75 19.6875C25.5625 19.75 25.375 19.8125 25.1875 19.875C25.25 20.125 25.3125 20.4375 25.375 20.6875C26.0625 24.3125 25.5 27.25 23.8125 28.25C22.1875 29.1875 19.5625 28.25 16.875 25.9375C16.5625 25.6875 16.3125 25.4375 16 25.1875C15.8125 25.375 15.5625 25.5625 15.375 25.75C12.625 28.1875 9.75 29.1875 8.0625 28.1875C6.4375 27.25 5.9375 24.5 6.5625 21.0625C6.6875 20.6875 6.75 20.3125 6.8125 19.9375C6.5625 19.875 6.25 19.75 6 19.6875C2.5 18.5 0 16.5 0 14.5625C0 12.6875 2.375 10.875 5.6875 9.6875C6.0625 9.5625 6.4375 9.4375 6.875 9.3125C6.75 9 6.6875 8.625 6.625 8.3125C5.9375 4.75 6.4375 1.9375 8.0625 1C9.75 0 12.625 1.0625 15.5 3.5625C15.625 3.75 15.8125 3.875 16 4.0625C16.25 3.8125 16.5 3.5625 16.75 3.375C19.5 1 22.1875 0 23.8125 0.9375C25.5 1.9375 26 4.9375 25.25 8.625C25.1875 8.875 25.125 9.125 25.125 9.375C25.4375 9.4375 25.75 9.5625 26.125 9.6875ZM17.625 4.375C17.375 4.5625 17.1875 4.8125 16.9375 5C17.875 6.0625 18.75 7.1875 19.5625 8.375C21 8.5 22.375 8.6875 23.8125 9C23.875 8.8125 23.875 8.625 23.9375 8.375C24.625 5.1875 24.1875 2.6875 23.125 2.125C22.125 1.5625 20 2.3125 17.625 4.375ZM10.4375 17.8125C10.125 17.25 9.8125 16.75 9.5 16.1875C9.125 17.125 8.8125 18.0625 8.5 18.9375C9.4375 19.1875 10.4375 19.3125 11.4375 19.4375C11.0625 18.875 10.75 18.375 10.4375 17.8125ZM8.5 10.3125C8.8125 11.1875 9.125 12.0625 9.5 13C9.8125 12.4375 10.125 11.9375 10.4375 11.375C10.75 10.875 11.0625 10.3125 11.375 9.8125C10.375 9.9375 9.4375 10.0625 8.5 10.3125ZM10.25 14.625C10.6875 15.4375 11.125 16.3125 11.5625 17.125C12.0625 17.9375 12.5625 18.75 13.125 19.5625C14.0625 19.625 15 19.6875 16 19.6875C16.9375 19.6875 17.9375 19.625 18.875 19.5625C19.375 18.75 19.875 17.9375 20.375 17.125C20.875 16.3125 21.3125 15.4375 21.6875 14.5625C21.3125 13.6875 20.8125 12.875 20.375 12.0625C19.875 11.25 19.375 10.4375 18.8125 9.625C17.9375 9.5625 16.9375 9.5 16 9.5C15 9.5 14.0625 9.5625 13.125 9.625C12.5625 10.4375 12.0625 11.25 11.5625 12.0625C11.125 12.875 10.625 13.75 10.25 14.625ZM21.5 17.8125C21.1875 18.3125 20.875 18.875 20.5625 19.375C21.5625 19.3125 22.5 19.125 23.5 18.875C23.1875 17.9375 22.8125 17.0625 22.4375 16.125C22.125 16.6875 21.875 17.25 21.5 17.8125ZM22.4375 13C22.8125 12.125 23.125 11.25 23.4375 10.3125C22.5625 10.125 21.5625 9.9375 20.5625 9.8125C20.875 10.3125 21.1875 10.875 21.5 11.375C21.8125 11.9375 22.125 12.4375 22.4375 13ZM16 6C15.375 6.6875 14.75 7.4375 14.125 8.25C15.375 8.1875 16.625 8.1875 17.8125 8.25C17.25 7.4375 16.625 6.6875 16 6ZM8.75 2.125C7.75 2.75 7.375 5 7.9375 8C8 8.375 8.0625 8.6875 8.1875 9C9.5625 8.6875 10.9375 8.5 12.375 8.375C13.1875 7.1875 14.0625 6.0625 15.0625 5C14.875 4.875 14.75 4.75 14.5625 4.5625C12.125 2.4375 9.8125 1.5625 8.75 2.125ZM7.1875 18.625C7.625 17.25 8.125 15.875 8.75 14.625C8.1875 13.3125 7.625 12 7.25 10.625C6.875 10.75 6.5 10.8125 6.125 10.9375C3.3125 11.9375 1.3125 13.4375 1.3125 14.5625C1.4375 15.3125 1.875 16 2.5 16.4375C3.5625 17.3125 5.125 17.9375 6.4375 18.375C6.6875 18.5 6.9375 18.5625 7.1875 18.625ZM14.5 24.75C14.6875 24.5625 14.875 24.375 15.0625 24.1875C14.125 23.125 13.1875 22 12.375 20.875C10.9375 20.75 9.5625 20.5625 8.125 20.25C8.0625 20.5625 8 20.9375 7.9375 21.3125C7.375 24.25 7.75 26.4375 8.75 27.0625C9.5 27.3125 10.25 27.3125 10.9375 26.9375C12.25 26.4375 13.4375 25.6875 14.5 24.75ZM16 23.25C16.6875 22.5 17.3125 21.75 17.875 20.9375C17.25 21 16.625 21 16 21C15.375 21 14.75 21 14.125 20.9375C14.75 21.8125 15.375 22.5625 16 23.25ZM24.1875 25.125C24.375 23.75 24.3125 22.3125 24.0625 20.9375C24 20.6875 23.9375 20.4375 23.875 20.1875C22.4375 20.5 21.0625 20.75 19.625 20.875C18.8125 22.0625 17.9375 23.125 16.9375 24.1875C17.25 24.4375 17.5 24.6875 17.75 24.9375C20.0625 26.875 22.1875 27.625 23.1875 27.0625C23.75 26.5625 24.125 25.875 24.1875 25.125ZM25.3125 18.375C28.4375 17.375 30.625 15.75 30.625 14.5625C30.625 13.4375 28.5625 11.9375 25.6875 10.9375C25.375 10.8125 25.0625 10.75 24.75 10.625C24.3125 12 23.8125 13.3125 23.1875 14.5625C23.8125 15.875 24.375 17.1875 24.8125 18.5625C25 18.5 25.125 18.4375 25.3125 18.375ZM16 17.4375C14.375 17.4375 13.125 16.1875 13.125 14.5625C13.125 13 14.375 11.75 16 11.75C17.5625 11.75 18.8125 13 18.8125 14.5625C18.8125 16.1875 17.5625 17.4375 16 17.4375Z" fill="#4896FB"/>
</svg>
